<svg xmlns="http://www.w3.org/2000/svg" viewBox="0 0 276.43 63.44"><defs><style>.cls-1{fill:#5c5b5f;}.cls-2{fill:#0a7758;}</style></defs><title>Zasób 4</title><g id="Warstwa_2" data-name="Warstwa 2"><g id="Warstwa_1-2" data-name="Warstwa 1"><path class="cls-1" d="M32.64,21.68H31c.11-1.62.16-2.92.16-3.89,0-2.93-.61-5-1.82-6.13a6.44,6.44,0,0,0-4.6-1.73,12.89,12.89,0,0,0-7.7,3q-4,3-6.86,9.38A31.67,31.67,0,0,0,7.26,35.43q0,6.52,2.67,10a8.09,8.09,0,0,0,6.68,3.48q5.46,0,10-6.55a1.28,1.28,0,0,1,1-.65,1,1,0,0,1,.68.26.81.81,0,0,1,.28.61c0,.56-.69,1.66-2.07,3.31A17,17,0,0,1,21.26,50a13.39,13.39,0,0,1-6.2,1.63A12.88,12.88,0,0,1,3.33,44.22a19,19,0,0,1-1.74-8.44,28.88,28.88,0,0,1,3.57-13.6,28.32,28.32,0,0,1,8.93-10.44A18.55,18.55,0,0,1,24.56,8.06a16.6,16.6,0,0,1,3.65.41q.78.18,6.42,2.15A39.75,39.75,0,0,0,32.64,21.68Z"/><path class="cls-2" d="M32.71,21.76l-1.76.1h-.17V19a19.52,19.52,0,0,0-.12-2.66c-.21-1.72-.71-3.49-2-4.45A6.06,6.06,0,0,0,24,10.72a11.09,11.09,0,0,0-4.67,1.75,16.73,16.73,0,0,0-3.88,3.27A22.8,22.8,0,0,0,12.6,20a32.49,32.49,0,0,0-3.42,9.77,28.65,28.65,0,0,0,.05,10.16,11.34,11.34,0,0,0,1.82,4.34,7.12,7.12,0,0,0,3.44,2.66,7,7,0,0,0,4.29,0,10.34,10.34,0,0,0,3.87-2.46,18.08,18.08,0,0,0,1.64-1.84q.39-.49.75-1l.21-.28a3,3,0,0,1,.37-.45A2.9,2.9,0,0,1,27.06,40,2.48,2.48,0,0,1,27.6,40,2.15,2.15,0,0,1,28,40a2.73,2.73,0,0,1,.9.3,3,3,0,0,1,.71.57,2.7,2.7,0,0,1,.52.88,2.52,2.52,0,0,1,.12,1.08,2.7,2.7,0,0,1-.17.74,5.34,5.34,0,0,1-.42.89,19,19,0,0,1-1.75,2.44,17.65,17.65,0,0,1-4.5,3.9,17.42,17.42,0,0,1-5.53,2.26A14.58,14.58,0,0,1,6.3,50.43,16,16,0,0,1,.37,40.28,27.3,27.3,0,0,1,.91,28.89,33.86,33.86,0,0,1,5.64,18.7a28.28,28.28,0,0,1,7.91-8A19.61,19.61,0,0,1,24.19,7.18,16.82,16.82,0,0,1,27,7.43q.69.12,1.38.3l1.29.48,5.12,1.9.51.19-.18.49a41,41,0,0,0-1.55,5.35c-.21.91-.38,1.83-.52,2.75-.07.47-.14.93-.19,1.4l-.08.7C32.78,21.25,32.74,21.51,32.71,21.76Zm-.14-.15c0-.22,0-.43,0-.64l0-.7q0-.7.12-1.41c.1-.94.23-1.87.4-2.8a39.62,39.62,0,0,1,1.39-5.48l.07.14L29.48,9,28.2,8.59c-.43-.1-.87-.18-1.31-.24a15,15,0,0,0-2.68-.16,18.8,18.8,0,0,0-10,3.6,26.72,26.72,0,0,0-7.37,7.72A33.39,33.39,0,0,0,2.56,29.3,25.68,25.68,0,0,0,2.12,40a14.21,14.21,0,0,0,5.29,9A12.67,12.67,0,0,0,17.5,51.15a15.51,15.51,0,0,0,4.9-2,16.47,16.47,0,0,0,4-3.46A17.2,17.2,0,0,0,28,43.49c.2-.37.43-.8.32-1.11a.78.78,0,0,0-.86-.48c-.36.08-.61.44-.87.81s-.54.73-.82,1.08a19.5,19.5,0,0,1-1.83,2,12,12,0,0,1-4.63,2.85,8.73,8.73,0,0,1-5.42,0A9,9,0,0,1,9.63,45.3a13,13,0,0,1-2.08-5,28.85,28.85,0,0,1,.14-10.8,33.89,33.89,0,0,1,3.78-10.12,24.44,24.44,0,0,1,3.14-4.42,18.23,18.23,0,0,1,4.23-3.39A12.19,12.19,0,0,1,24,9.84a6.84,6.84,0,0,1,5.13,1.51,5,5,0,0,1,1.52,2.26,10.55,10.55,0,0,1,.54,2.67,18.86,18.86,0,0,1,0,2.71l-.11,2.7L31,21.58C31.49,21.58,32,21.59,32.57,21.61Z"/><path class="cls-1" d="M53.81,22.53a20.22,20.22,0,0,1-5.21.77c-.87,0-1.84-.05-2.9-.15-1.48-.17-2.46-.25-3-.25a2.1,2.1,0,0,0-1.44.44,1.41,1.41,0,0,0-.49,1.12,1.06,1.06,0,0,0,1.12,1.15c.93.11,1.4.53,1.4,1.28a1.27,1.27,0,0,1-.44.95,1.39,1.39,0,0,1-1,.42,2.76,2.76,0,0,1-2.08-1.1,4.11,4.11,0,0,1-1-2.76,4.68,4.68,0,0,1,1.78-3.65,6.51,6.51,0,0,1,4.4-1.53,26.13,26.13,0,0,1,3.71.37,39.32,39.32,0,0,0,5.42.6,5.14,5.14,0,0,0,3.15-1.12,2.06,2.06,0,0,1,1.12-.5.92.92,0,0,1,.64.23.65.65,0,0,1,.27.45,1.08,1.08,0,0,1-.35.69,67.29,67.29,0,0,1-4.83,4.92l-9.66,9.25q-4.25,4.05-7.05,6.54a27.52,27.52,0,0,1,2.77-.2,12.59,12.59,0,0,1,2.56.24,35.11,35.11,0,0,1,3.71,1.07,17.47,17.47,0,0,0,5.43,1.15,3,3,0,0,0,2-.6,2,2,0,0,0,.7-1.55,3.65,3.65,0,0,0-.5-1.49,3.89,3.89,0,0,1-.44-1.44,1.82,1.82,0,0,1,.5-1.28A1.65,1.65,0,0,1,55.46,36a1.88,1.88,0,0,1,1.51.74,2.84,2.84,0,0,1,.61,1.89,6.74,6.74,0,0,1-1.28,3.68,8.79,8.79,0,0,1-3.21,3,10,10,0,0,1-4.77,1A26.42,26.42,0,0,1,41.49,45,22.16,22.16,0,0,0,36,43.87,4.24,4.24,0,0,0,33.54,45a2.34,2.34,0,0,1-1.4.71c-.77,0-1.15-.19-1.15-.57a2.11,2.11,0,0,1,.65-1.29c1.16-1.37,4.12-4.21,8.85-8.5q4.8-4.36,8.42-7.95Z"/><path class="cls-2" d="M53.72,22.58c-.1.05-.14.12-.2.14l-.29.09-.6.17q-.62.16-1.23.3a16.4,16.4,0,0,1-2.53.36c-1.69,0-3.41,0-5-.12-.41,0-.84-.05-1.21-.05a1.57,1.57,0,0,0-.86.27.8.8,0,0,0-.31.61.86.86,0,0,0,.05.35.19.19,0,0,0,.11.12,1,1,0,0,0,.29.06l.34,0a3.14,3.14,0,0,1,.4.08,2.17,2.17,0,0,1,.84.45,1.82,1.82,0,0,1,.56.91,2.1,2.1,0,0,1-.41,1.9,2.34,2.34,0,0,1-1.71.88,3.09,3.09,0,0,1-1.67-.41,4.33,4.33,0,0,1-1.22-1,5,5,0,0,1-1.17-2.83,5.6,5.6,0,0,1,.5-3,6.49,6.49,0,0,1,1.9-2.3A8.08,8.08,0,0,1,45.76,18c1.79,0,3.47.36,5.08.53.81.1,1.63.17,2.41.21a10.08,10.08,0,0,0,1.09,0,3.14,3.14,0,0,0,.86-.18,3.81,3.81,0,0,0,.81-.4,4.34,4.34,0,0,0,.39-.29,8.22,8.22,0,0,1,.72-.47,3.09,3.09,0,0,1,1.21-.37,2.53,2.53,0,0,1,1.55.42,2.71,2.71,0,0,1,.55.52,2,2,0,0,1,.46,1.13,2.4,2.4,0,0,1-.53,1.62c-.64.79-1.2,1.37-1.8,2l-1.79,1.81-3.6,3.51-7.19,7L38.64,42,37.27,38.9c1-.08,2-.17,3.09-.23a14.89,14.89,0,0,1,1.62.08,8.74,8.74,0,0,1,1.6.29l2.92.87c1,.29,1.78.6,2.66.82a12.24,12.24,0,0,0,2.48.44,3.35,3.35,0,0,0,.91-.05c.23-.07.24-.08.33-.17a.22.22,0,0,0,.06-.16.67.67,0,0,0,0-.19,4.76,4.76,0,0,0-.22-.49,6.45,6.45,0,0,1-.62-1.92,2.42,2.42,0,0,1,0-.39c0-.1,0-.21,0-.32a4,4,0,0,1,.14-.67,3.49,3.49,0,0,1,.65-1.22,3.38,3.38,0,0,1,2.48-1.23,3.58,3.58,0,0,1,2.48.87,4.29,4.29,0,0,1,1.25,2,5.56,5.56,0,0,1,.14,2A8.3,8.3,0,0,1,58,42.64a11.19,11.19,0,0,1-2.12,2.6A10,10,0,0,1,53,47.06a11.3,11.3,0,0,1-3.25.74,14.43,14.43,0,0,1-1.61.05,11.91,11.91,0,0,1-1.62-.14,30,30,0,0,1-3-.66c-1.95-.52-3.71-1.19-5.49-1.57-.44-.1-.88-.19-1.3-.25l-.61-.06h-.21l-.17,0a3.05,3.05,0,0,0-.92.4,4.65,4.65,0,0,0-.49.33,5.67,5.67,0,0,1-.7.5,3.28,3.28,0,0,1-1.08.44l-.37,0H32a3.34,3.34,0,0,1-.51-.06,2.25,2.25,0,0,1-.65-.2,1.68,1.68,0,0,1-.82-.8,1.52,1.52,0,0,1-.15-.63,2.5,2.5,0,0,1,0-.42,3,3,0,0,1,.2-.62,5.43,5.43,0,0,1,1.08-1.44c.34-.37.69-.71,1-1.06C33.58,40.29,35,39,36.45,37.72s2.94-2.5,4.37-3.77l4.32-3.8,2.17-1.9c.72-.64,1.45-1.28,2.1-1.88C50.76,25.19,52.26,24,53.72,22.58Zm.17-.1L49.8,26.65c-1.38,1.39-2.79,2.66-4.18,4q-4.18,4-8.42,7.87c-1.41,1.31-2.81,2.63-4.15,4-.34.35-.67.69-1,1.05a4.6,4.6,0,0,0-.83,1.11.86.86,0,0,0-.08.59.72.72,0,0,0,.51.26,2.1,2.1,0,0,0,.66,0,1.81,1.81,0,0,0,.61-.26,7.08,7.08,0,0,1,2.51-1.47,8.13,8.13,0,0,1,2.92.22c1.9.37,3.72,1,5.58,1.46a16.43,16.43,0,0,0,5.65.62,8.5,8.5,0,0,0,5.12-2.16,9.84,9.84,0,0,0,1.76-2.2,6.65,6.65,0,0,0,.91-2.64,2.82,2.82,0,0,0-.79-2.48A1.61,1.61,0,0,0,53.9,38a4.6,4.6,0,0,0,.46,1.3,4,4,0,0,1,.47,1.43,2.15,2.15,0,0,1-.49,1.47,3.21,3.21,0,0,1-2.79.92,13.87,13.87,0,0,1-2.87-.47c-1-.22-1.86-.57-2.77-.83L43.15,41a10.21,10.21,0,0,0-2.81-.35l-2.85.19-.55,0,.4-.37,7.35-6.81,7.25-6.93c2.39-2.32,4.9-4.56,7.06-7.07a.78.78,0,0,0,.2-.46.68.68,0,0,0-.29-.38.94.94,0,0,0-1,0c-.35.18-.66.47-1,.69a5.6,5.6,0,0,1-1.17.53,6.24,6.24,0,0,1-2.54.18c-.84-.06-1.67-.16-2.5-.27-1.66-.22-3.3-.56-5-.64A6.73,6.73,0,0,0,41,20.61a5.41,5.41,0,0,0-1.59,1.84A4.45,4.45,0,0,0,39,24.81,3.86,3.86,0,0,0,39.89,27a2.67,2.67,0,0,0,2,1.1,1.31,1.31,0,0,0,1.25-1.56,1,1,0,0,0-.77-.75c-.36-.13-.82-.06-1.23-.33a1.26,1.26,0,0,1-.47-1.23,1.5,1.5,0,0,1,.66-1.12,2.29,2.29,0,0,1,1.25-.36c.43,0,.84.06,1.26.09,1.68.16,3.33.26,5,.32A17.07,17.07,0,0,0,51.34,23c.41-.06.82-.14,1.23-.23l.61-.14.31-.08A1.43,1.43,0,0,1,53.89,22.48Z"/><path class="cls-1" d="M70.92,14.48l5-1.9-2.24,8.73h6.46l-.5,2.21H73.13L70.41,34a30,30,0,0,0-1.3,6.54,1.71,1.71,0,0,0,.36,1.22,1.3,1.3,0,0,0,1,.37,6.92,6.92,0,0,0,3-1.15,39.22,39.22,0,0,0,5-3.46l1.19,1.43a79.16,79.16,0,0,1-9.14,6.3,8.87,8.87,0,0,1-3.71,1.15,2.22,2.22,0,0,1-1.82-.84,4.39,4.39,0,0,1-.67-2.74,30.25,30.25,0,0,1,1.19-6.86l3.17-12.41h-5l.56-2.21h5.06Z"/><path class="cls-2" d="M70.85,14.42c1.57-.72,3.17-1.52,4.86-2.25l.76-.32-.17.84-1.8,8.84-.87-1.12c2.15-.11,4.31-.15,6.46-.22l1.36-.05-.27,1.42-.43,2.23-.17.89-1,0-6.46.2,1.35-1.05c-.54,2.38-1.07,4.75-1.66,7.11s-1.21,4.74-1.66,7c-.1.57-.2,1.13-.25,1.66a4.45,4.45,0,0,0,0,1.11s-.16-.3-.28-.33-.17-.05-.12-.06a4.52,4.52,0,0,0,1.12-.42,27.74,27.74,0,0,0,2.9-1.76c1-.65,1.88-1.34,2.78-2.08L78.65,35l1.14,1.38L81,37.78l1.21,1.46-1.51,1.12c-2.69,2-5.33,4-8.3,5.79-.38.22-.79.45-1.22.66s-.81.39-1.25.56a8.82,8.82,0,0,1-3,.7,4.22,4.22,0,0,1-2-.44,3.89,3.89,0,0,1-1.57-1.49,6.41,6.41,0,0,1-.69-3.24,25.09,25.09,0,0,1,.8-5.26c.42-1.66.91-3.24,1.36-4.83l2.77-9.55,1,1.34c-1.68-.06-3.37-.09-5-.18l-1.2-.06.33-1.06.67-2.18.19-.62.57,0,5,.25-.5.4c.36-1.16.71-2.32,1.08-3.44Zm.15.13-1.72,6.79,0,.08H64.12l.12-.09-.56,2.21-.12-.15h5.22l0,.17-2.45,9.63c-.77,3.21-1.8,6.42-1.87,9.7a4.79,4.79,0,0,0,.48,2.32,2.09,2.09,0,0,0,1.95,1,7,7,0,0,0,2.34-.6,15.46,15.46,0,0,0,2.19-1.1c2.79-1.75,5.44-3.75,8.09-5.73l0,.28-1.19-1.43.28,0a35.69,35.69,0,0,1-6.1,4,5.92,5.92,0,0,1-1.78.59,1.72,1.72,0,0,1-1-.18,1.34,1.34,0,0,1-.63-.81,5.17,5.17,0,0,1,0-1.88c.08-.61.19-1.21.31-1.81.52-2.39,1.22-4.71,1.81-7.07l1.84-7,0-.12h6.58l-.14.11L80,21.28l.13.16H73.47l0-.15,2.26-8.72.14.13Z"/><path class="cls-1" d="M99,37.68l1,1.37q-7.65,7.26-13.1,7.26a4.06,4.06,0,0,1-3.38-1.49A7.85,7.85,0,0,1,82.33,40a25.24,25.24,0,0,1,4-13.28q4.56-7.5,10.89-7.51a4.73,4.73,0,0,1,3.38,1.11,4,4,0,0,1,1.17,3,6.79,6.79,0,0,1-1.41,4,16,16,0,0,1-5,4.08c-1.2.69-3.78,1.92-7.73,3.71a20.3,20.3,0,0,0-.28,3.21,5.12,5.12,0,0,0,.7,3.09,2.48,2.48,0,0,0,2,.87,6.76,6.76,0,0,0,2.8-.71A40.54,40.54,0,0,0,99,37.68ZM88,33.16a24.47,24.47,0,0,0,7.54-4.84,5.31,5.31,0,0,0,1.72-3.58,3.12,3.12,0,0,0-.71-2.14,2.29,2.29,0,0,0-1.82-.79,3.54,3.54,0,0,0-2.24.87,8.67,8.67,0,0,0-2.47,3.49A31.6,31.6,0,0,0,88,33.16Z"/><path class="cls-2" d="M99,37.58l1.21,1.32.13.15-.16.17a32.78,32.78,0,0,1-7.61,6.46,12.85,12.85,0,0,1-5,1.7,6.36,6.36,0,0,1-2.92-.29,5,5,0,0,1-2.49-2,8.13,8.13,0,0,1-1-2.76,15.52,15.52,0,0,1-.24-2.68,21.17,21.17,0,0,1,.53-5.2,28.72,28.72,0,0,1,4.06-9.51,22,22,0,0,1,3.41-4.11A13.15,13.15,0,0,1,93.74,18a11.9,11.9,0,0,1,2.84-.49,8.79,8.79,0,0,1,3,.31,5.4,5.4,0,0,1,2.89,2,5.89,5.89,0,0,1,1,3.26,7.78,7.78,0,0,1-.56,3.07,9.75,9.75,0,0,1-1.51,2.53,16.76,16.76,0,0,1-4.19,3.42c-.37.23-.74.44-1.13.65l-1.14.5-2.29,1-4.57,2,.68-.88a15.45,15.45,0,0,0-.36,4.34,4,4,0,0,0,.2.89,1.47,1.47,0,0,0,.38.57,2.29,2.29,0,0,0,1.65.38A10.63,10.63,0,0,0,94.84,40l2-1.18,1-.6.51-.31A5.87,5.87,0,0,1,99,37.58Zm0,.2a4.12,4.12,0,0,1-.4.33l-.47.35-1,.69c-.64.46-1.29.9-1.95,1.33a11.56,11.56,0,0,1-4.33,1.91A3.24,3.24,0,0,1,88.47,42a3,3,0,0,1-1.11-2.11,16,16,0,0,1,.17-4.74v-.07l.07,0L92,32.9l2.2-1.07,1.1-.53c.35-.21.7-.42,1-.64a15.41,15.41,0,0,0,3.7-3.11,6.75,6.75,0,0,0,1.57-4.41,4,4,0,0,0-.69-2.2,3.46,3.46,0,0,0-1.89-1.3,6.9,6.9,0,0,0-2.36-.21,10.44,10.44,0,0,0-2.36.43c-3.1,1-5.48,3.44-7.25,6.12a28.14,28.14,0,0,0-4,8.86,22.43,22.43,0,0,0-.63,4.82,9.36,9.36,0,0,0,.86,4.69,3.66,3.66,0,0,0,1.76,1.51,5.18,5.18,0,0,0,2.35.3,12.6,12.6,0,0,0,4.62-1.38A34.39,34.39,0,0,0,99.91,39l0,.14Z"/><path class="cls-2" d="M88.1,33.08a1.91,1.91,0,0,0,.35-.35,2,2,0,0,1,.33-.31l.78-.62c.51-.42,1-.81,1.51-1.24A29.25,29.25,0,0,0,93.82,28a13,13,0,0,0,1.06-1.32,3.66,3.66,0,0,0,.58-1.27,2.32,2.32,0,0,0,0-1.11.94.94,0,0,0-.33-.61c-.08-.09-.19-.15-.52-.15a2.06,2.06,0,0,0-1,.36,7.05,7.05,0,0,0-2.11,2.32c-.59,1-1.22,2.2-1.77,3.34-.3.58-.56,1.17-.84,1.77l-.42.9-.21.45C88.29,32.83,88.18,32.88,88.1,33.08Zm-.12.16a2.35,2.35,0,0,1,0-.59l.09-.48.2-1c.15-.64.32-1.28.5-1.91a29,29,0,0,1,1.36-3.72,8.19,8.19,0,0,1,2.42-3.15,3.7,3.7,0,0,1,1.88-.78,2.61,2.61,0,0,1,2,.55,3,3,0,0,1,1,1.82,4.23,4.23,0,0,1-.18,2,7.65,7.65,0,0,1-2.4,3.18,21.35,21.35,0,0,1-3.24,2.26c-.57.33-1.16.64-1.74.93A13.91,13.91,0,0,1,88,33.24Z"/><path class="cls-1" d="M110.08,45.5h-4.65l2.19-8.38q1.59-6.18,2.77-11.73a11.72,11.72,0,0,0,.28-1.71c0-.5-.23-.75-.68-.75a3.09,3.09,0,0,0-1.44.64,30.25,30.25,0,0,0-3.49,3.16l-1-1.09a23.92,23.92,0,0,1,6-4.81,10.87,10.87,0,0,1,4.57-1.61,1.32,1.32,0,0,1,.88.27.82.82,0,0,1,.33.67,14.88,14.88,0,0,1-.41,2.16l-1.36,5.61a40.1,40.1,0,0,1,7.13-8.52,5.43,5.43,0,0,1,3.18-1.69,2.19,2.19,0,0,1,1.57.61,2,2,0,0,1,0,2.86,9.29,9.29,0,0,1-3,1.4,13.31,13.31,0,0,0-3.76,1.87A18.2,18.2,0,0,0,116,27.8a18,18,0,0,0-2.41,3.91,63.33,63.33,0,0,0-2.09,7.74Z"/><path class="cls-2" d="M110.14,45.58c-1.49.09-3.06.28-4.71.35l-.52,0,.11-.56L108,30.73l.73-3.65.37-1.82.22-1.57s0,0,0,.2a.94.94,0,0,0,.54.46l.12,0h.12l-.15.08a6,6,0,0,0-.6.39,7.23,7.23,0,0,0-.58.5c-.86.76-1.73,1.65-2.58,2.52L105,29.06l-1.17-1.27-1-1.07-1-1.07,1-1.11a29.21,29.21,0,0,1,4.36-4A19.63,19.63,0,0,1,109.85,19a16.94,16.94,0,0,1,2.86-1.2,6.59,6.59,0,0,1,1.83-.31,3.39,3.39,0,0,1,1.4.24A2.78,2.78,0,0,1,117.36,19a2.66,2.66,0,0,1,.26,1.06,3.92,3.92,0,0,1-.05.65c0,.3-.09.54-.13.79l-.31,1.42c-.42,1.81-.88,3.61-1.33,5.41L112.57,27a46,46,0,0,1,4-5.28c.73-.83,1.48-1.64,2.29-2.4.4-.38.82-.75,1.24-1.11a12.15,12.15,0,0,1,1.46-1.11,6.23,6.23,0,0,1,2-.86,4,4,0,0,1,2.63.3,3.71,3.71,0,0,1,1.82,2,3.53,3.53,0,0,1-.18,2.78,3.25,3.25,0,0,1-.88,1.1,4.74,4.74,0,0,1-1,.59,13.26,13.26,0,0,1-1.65.64l-1.5.48a12,12,0,0,0-1.34.53,8.73,8.73,0,0,0-2.35,1.51A20.19,20.19,0,0,0,117,28.33a23,23,0,0,0-1.81,2.44,12.23,12.23,0,0,0-1.27,2.65c-.7,2-1.3,4-1.9,6S110.74,43.65,110.14,45.58Zm-.12-.16,1.39-6.13c.48-2.06,1-4.12,1.55-6.16A15.73,15.73,0,0,1,116,27.56a13.73,13.73,0,0,1,4.73-4.23,24,24,0,0,1,3-1.18,11.52,11.52,0,0,0,1.44-.61,2.18,2.18,0,0,0,1.09-1,1.82,1.82,0,0,0,.07-1.41,2,2,0,0,0-1-1A2.14,2.14,0,0,0,123.9,18a4.59,4.59,0,0,0-1.38.65,17.59,17.59,0,0,0-2.38,2Q119,21.75,118,23A42.31,42.31,0,0,0,114.24,28l-.63,1,.28-1.14,1.3-5.41.31-1.35c.07-.44.24-.95.09-1.25a1,1,0,0,0-1-.46,5,5,0,0,0-1.32.23,18.38,18.38,0,0,0-4.91,2.46,26.6,26.6,0,0,0-4.14,3.66v-.23l1,1.1h-.24c.89-.88,1.78-1.76,2.74-2.57A7.2,7.2,0,0,1,109.26,23a1.47,1.47,0,0,1,1-.17.68.68,0,0,1,.45.36,1.09,1.09,0,0,1,.11.52c-.11.62-.2,1.26-.32,1.87l-.43,1.82L109.2,31c-.59,2.43-1.13,4.86-1.76,7.27l-1.9,7.24-.11-.14Z"/><path class="cls-1" d="M123.36,25.64l-1-1.46,2.31-1.56a40.75,40.75,0,0,1,4.74-3,3.36,3.36,0,0,1,1.43-.38,1.64,1.64,0,0,1,1.25.75,29.19,29.19,0,0,1,4.61,9.33,37.37,37.37,0,0,1,1.87,11.39c0,.47,0,1.2-.06,2.18q5.27-9.7,5.27-15.41a13,13,0,0,0-.53-3.15,14.23,14.23,0,0,1-.56-3.12,2.09,2.09,0,0,1,.57-1.5,2,2,0,0,1,1.45-.59,2.16,2.16,0,0,1,1.77.84,3.81,3.81,0,0,1,.67,2.4,35.71,35.71,0,0,1-1.84,10,64.64,64.64,0,0,1-5.79,12.91,52.75,52.75,0,0,1-7.2,10.26,22.81,22.81,0,0,1-6.3,4.8,13.45,13.45,0,0,1-5.75,1.45,5.23,5.23,0,0,1-3.1-.77,2.22,2.22,0,0,1-1-1.82,2,2,0,0,1,.81-1.61,3.34,3.34,0,0,1,2.18-.67,14.53,14.53,0,0,1,2.9.41,15.31,15.31,0,0,0,2.68.44,6.79,6.79,0,0,0,4-1.59,16.85,16.85,0,0,0,4.6-5.2,12.39,12.39,0,0,0,1.7-6.11,52.48,52.48,0,0,0-1.26-10.4,24.81,24.81,0,0,0-3.57-9.28,3.15,3.15,0,0,0-2.47-1.65C126.71,23.59,125.25,24.27,123.36,25.64Z"/><path class="cls-2" d="M123.34,25.74l-1.13-1.46-.1-.14.15-.11,3.58-2.66c.61-.43,1.22-.86,1.85-1.27a11.27,11.27,0,0,1,2-1.14,3.12,3.12,0,0,1,1.34-.23,2.2,2.2,0,0,1,1.31.7,19.62,19.62,0,0,1,1.44,1.84,28.85,28.85,0,0,1,2.25,4A39.38,39.38,0,0,1,139,33.87a36.25,36.25,0,0,1,.81,9.11l-2.35-.65a59.28,59.28,0,0,0,3.49-8,26.93,26.93,0,0,0,1.07-4.1c.11-.68.2-1.36.24-2a7.3,7.3,0,0,0-.11-1.87c-.23-1.28-.78-2.75-1-4.48a4.32,4.32,0,0,1,.11-1.71,3.66,3.66,0,0,1,1-1.69,3.55,3.55,0,0,1,1.83-.87,4.12,4.12,0,0,1,1.87.14,4,4,0,0,1,2.5,2.61,7.77,7.77,0,0,1,.3,2.79,30.18,30.18,0,0,1-.55,4.7A59.25,59.25,0,0,1,141.76,45a81.51,81.51,0,0,1-4.87,7.74,37.39,37.39,0,0,1-3,3.63,31.15,31.15,0,0,1-3.49,3.19,19.38,19.38,0,0,1-4.16,2.52,15.57,15.57,0,0,1-4.8,1.31,11.35,11.35,0,0,1-2.6,0A5.66,5.66,0,0,1,116,62.19a4.24,4.24,0,0,1-1.13-1.4,3.68,3.68,0,0,1-.32-1.95,3.62,3.62,0,0,1,.79-1.82,4.08,4.08,0,0,1,1.39-1.09,5.65,5.65,0,0,1,3-.46,17.25,17.25,0,0,1,2.41.42c.73.17,1.42.34,2.07.44a2.77,2.77,0,0,0,.79.05,3.44,3.44,0,0,0,.81-.14,9.32,9.32,0,0,0,3.29-2,15.22,15.22,0,0,0,2.74-3.09,12.81,12.81,0,0,0,1.73-3.69,12.66,12.66,0,0,0,.37-4.12,65.09,65.09,0,0,0-1-8.74,26.39,26.39,0,0,0-2.66-8.29,7.75,7.75,0,0,0-1.22-1.71,2.08,2.08,0,0,0-1.75-.66,6.6,6.6,0,0,0-2,.68c-.33.17-.65.35-1,.53S123.75,25.54,123.34,25.74Zm0-.2a6.32,6.32,0,0,1,.84-.62c.32-.2.64-.4,1-.58a6.86,6.86,0,0,1,2.11-.82,2.52,2.52,0,0,1,2.14.68A8.28,8.28,0,0,1,130.82,26a27,27,0,0,1,3,8.41,57.45,57.45,0,0,1,1.25,8.86,14.06,14.06,0,0,1-.3,4.48A14.35,14.35,0,0,1,133,51.86a16.39,16.39,0,0,1-2.9,3.43,10.82,10.82,0,0,1-3.8,2.42,4.85,4.85,0,0,1-2.27.2c-.75-.1-1.48-.26-2.21-.42a18,18,0,0,0-2.18-.34,4.12,4.12,0,0,0-2.1.31A2.09,2.09,0,0,0,116.3,59a2,2,0,0,0,.83,1.79,6,6,0,0,0,4.17.79,15.84,15.84,0,0,0,8-3.52,30.18,30.18,0,0,0,6-6.48A77.75,77.75,0,0,0,140,44a58,58,0,0,0,6.38-16.58,28.32,28.32,0,0,0,.56-4.4,6.15,6.15,0,0,0-.2-2.15,2.21,2.21,0,0,0-1.35-1.47,2,2,0,0,0-1.93.34,2.06,2.06,0,0,0-.6,1.9c.14,1.47.65,2.88.91,4.37a12.11,12.11,0,0,1-.17,4.49,27.71,27.71,0,0,1-1.23,4.32A60.6,60.6,0,0,1,138.63,43l-.3.57,0-.65a38.48,38.48,0,0,0-3.18-17.29,27.73,27.73,0,0,0-2.06-3.93,16.13,16.13,0,0,0-1.29-1.78,1.55,1.55,0,0,0-.87-.52,2.69,2.69,0,0,0-1,.16,24,24,0,0,0-3.82,2.22l-3.69,2.48,0-.14C122.77,24.59,123.07,25.06,123.38,25.54Z"/><path class="cls-1" d="M187.68,26l-1.37,5.74-2.07,9A6.52,6.52,0,0,0,184,42c0,.64.25,1,.74,1a2.67,2.67,0,0,0,1.28-.41,28.27,28.27,0,0,0,3.49-2.65c1.25-1,2-1.65,2.37-1.9L193,39.11a29.48,29.48,0,0,1-5.73,5q-3.35,2.27-5.46,2.26a2,2,0,0,1-1.6-.73,2.85,2.85,0,0,1-.64-2q0-2.49,1.93-10.37l.95-3.84-6.59,4.41.65-2.8,6.65-4.43,1.74-7q1.94-7.87,2.93-9.87a14.26,14.26,0,0,1,5.44-5.9,14.27,14.27,0,0,1,7.62-2.26,3.21,3.21,0,0,1,2.09.62,2,2,0,0,1,.75,1.57,2.1,2.1,0,0,1-.78,1.61,3,3,0,0,1-2.09.69,16.43,16.43,0,0,1-2.68-.32,17.06,17.06,0,0,0-2.75-.24,3.1,3.1,0,0,0-2,.52,6.67,6.67,0,0,0-1.58,3q-.69,2.25-2.44,9.6l-1.07,4.49,9.46-6.31-.72,2.81Z"/><path class="cls-2" d="M187.76,26l-2.48,13.05L185,40.7a5.49,5.49,0,0,0-.18,1.4.48.48,0,0,0,0,.14s0-.05-.06-.08.1,0,.26-.07a4.22,4.22,0,0,0,1.17-.69c.84-.63,1.66-1.36,2.5-2.08l2.58-2.17.7-.59.7.71,1.08,1.1.68.68-.65.78a31.36,31.36,0,0,1-6.18,5.55,15.5,15.5,0,0,1-3.88,2,7.38,7.38,0,0,1-1.19.28,4.78,4.78,0,0,1-1.43,0,3.38,3.38,0,0,1-1.53-.69,3.81,3.81,0,0,1-1-1.24,5.16,5.16,0,0,1-.48-2.68c0-.75.11-1.45.2-2.14.19-1.38.47-2.71.74-4,.56-2.66,1.21-5.26,1.84-7.86l2.46,1.74-6.56,4.45-3.5,2.38.94-4.15.63-2.81L175,30l.56-.38,6.61-4.48-.72,1c.66-2.73,1.28-5.46,2-8.18.36-1.37.72-2.74,1.12-4.11a43.36,43.36,0,0,1,1.38-4.18,15.69,15.69,0,0,1,6.06-7A16.11,16.11,0,0,1,200.8,0a4.94,4.94,0,0,1,2.93.83,3.68,3.68,0,0,1,1.18,1.37A3.54,3.54,0,0,1,205.27,4a3.61,3.61,0,0,1-.61,1.76A4.12,4.12,0,0,1,203.44,7a5,5,0,0,1-2.91.68,19.06,19.06,0,0,1-2.29-.29,17.82,17.82,0,0,0-1.93-.3L195.37,7a4.73,4.73,0,0,0-.71,0,1.38,1.38,0,0,0-.33.12,2.34,2.34,0,0,0-.39.49,9.27,9.27,0,0,0-.74,1.64c-.2.64-.37,1.33-.56,2l-1.12,4c-.76,2.67-1.47,5.38-2.18,8.1l-1.56-1.09c3.18-2.06,6.43-4,9.65-6l1.51-.93L198.46,17l-.82,2.78-.07.23-.16.1-4.77,2.94Zm-.16-.12L197,19.57l-.05.06.71-2.81.18.13-9.45,6.32-.28.18.08-.32c.64-2.73,1.29-5.46,2-8.18l1-4.08c.17-.68.33-1.36.53-2a10.2,10.2,0,0,1,.83-2,3.92,3.92,0,0,1,.66-.87,2.23,2.23,0,0,1,1-.49,7,7,0,0,1,2.14-.09c1.42.08,2.79.47,4.17.51a3.35,3.35,0,0,0,1.93-.42,2.1,2.1,0,0,0,1-1.59,1.86,1.86,0,0,0-.82-1.66,3.16,3.16,0,0,0-1.9-.48A14.38,14.38,0,0,0,193,4.24a13.9,13.9,0,0,0-5.3,6.23,75.83,75.83,0,0,0-2.34,8l-2,8.16v.08l-.07,0-6.65,4.42.08-.11-.66,2.8-.27-.19,6.6-4.4.37-.24-.11.42c-.65,2.6-1.32,5.19-1.89,7.79-.28,1.31-.55,2.61-.76,3.93-.1.66-.19,1.32-.23,2a3.64,3.64,0,0,0,.27,1.89,2,2,0,0,0,1.41,1.11A4.47,4.47,0,0,0,183.3,46a14.48,14.48,0,0,0,3.54-1.77,29.61,29.61,0,0,0,6-5.19v.18l-1.06-1.12H192l-2.59,2.08c-.85.71-1.71,1.41-2.63,2.06a4.79,4.79,0,0,1-1.51.77,1.39,1.39,0,0,1-.9,0,.93.93,0,0,1-.44-.8,6.07,6.07,0,0,1,.25-1.67l.37-1.62C185.53,34.57,186.53,30.24,187.6,25.89Z"/><path class="cls-1" d="M217.45,18.75l2.05-.43-2.33,7.88q-1.41,4.71-2.65,10.85a28.66,28.66,0,0,0-.69,4.31q0,1,.78,1a3.82,3.82,0,0,0,1.59-.65,20.43,20.43,0,0,0,3.71-2.87l1,1.21a59.6,59.6,0,0,1-4.55,3.93,16.93,16.93,0,0,1-3.81,2,6.69,6.69,0,0,1-2.31.44A1.72,1.72,0,0,1,209,46a1.41,1.41,0,0,1-.41-1.09,4.93,4.93,0,0,1,.25-1.28l1.25-4.24a26.62,26.62,0,0,1-6.39,5.52,8,8,0,0,1-4.18,1.43,3.26,3.26,0,0,1-2.77-1.27,7.23,7.23,0,0,1-1.31-4.49,18.73,18.73,0,0,1,1.76-7.36A27.34,27.34,0,0,1,202,25.89,20.11,20.11,0,0,1,208.19,21a15.28,15.28,0,0,1,6.48-1.19,17.57,17.57,0,0,1,2,.13Zm-3.87,4.77a14.5,14.5,0,0,0-2.84-.34,8,8,0,0,0-4.89,1.54A13.81,13.81,0,0,0,202,30.27a19.37,19.37,0,0,0-1.79,8,5.06,5.06,0,0,0,.71,3,2.24,2.24,0,0,0,1.87.94q2.16,0,4.62-2.32A13.83,13.83,0,0,0,211,33.25Z"/><path class="cls-2" d="M217.39,18.67l2.06-.6.39-.12-.09.44c-.56,2.58-1.21,5.14-1.81,7.71-.3,1.28-.58,2.55-.84,3.83s-.54,2.56-.78,3.85-.48,2.57-.69,3.86l-.3,1.92a13.94,13.94,0,0,0-.16,1.77c0,.08,0,.13,0,.09a.63.63,0,0,0-.26-.35.81.81,0,0,0-.33-.14c-.11,0,0,0,0,0A9,9,0,0,0,216,40a23.16,23.16,0,0,0,2.79-2.37L220,36.49l1.11,1.31,1,1.2,1,1.14-1.13,1c-1.28,1.21-2.54,2.4-3.94,3.59a17.76,17.76,0,0,1-2.38,1.64A17.39,17.39,0,0,1,213,47.66a8.21,8.21,0,0,1-1.57.4,6,6,0,0,1-.84.09,6.4,6.4,0,0,1-1,0,3.4,3.4,0,0,1-1.27-.41,2.93,2.93,0,0,1-1.13-1.16,3.3,3.3,0,0,1-.38-1.34,5.81,5.81,0,0,1,0-.59c0-.18,0-.35.07-.5a7.46,7.46,0,0,1,.19-.81l.19-.65.36-1.25.73-2.5,3.1,1.65a27.71,27.71,0,0,1-5.31,4.84c-.48.34-1,.67-1.49,1a11.79,11.79,0,0,1-1.69.91,7.92,7.92,0,0,1-4.18.74,5,5,0,0,1-2.34-.91,4.93,4.93,0,0,1-.93-.89,8.13,8.13,0,0,1-.61-.92,8.9,8.9,0,0,1-1-4,17,17,0,0,1,1.42-7.17A28.33,28.33,0,0,1,203.56,23,18.48,18.48,0,0,1,206.51,21a12.3,12.3,0,0,1,3.34-1.23,18.25,18.25,0,0,1,6.87,0l-.2.09Zm.11.16L216.79,20l0,.06h-.06a19.37,19.37,0,0,0-6.66.42,14.86,14.86,0,0,0-5.75,3.29,27,27,0,0,0-7.49,11,16.64,16.64,0,0,0-1.14,6.53,7,7,0,0,0,.88,3.14,3.81,3.81,0,0,0,1,1.22,3.12,3.12,0,0,0,1.49.54,6.08,6.08,0,0,0,3.17-.62,18.21,18.21,0,0,0,2.85-1.73A26,26,0,0,0,210,39.3l.6-.73-.26.91c-.47,1.67-1,3.36-1.45,5a1.88,1.88,0,0,0,.1,1.16,1.16,1.16,0,0,0,.93.56,5.87,5.87,0,0,0,2.48-.36,16.43,16.43,0,0,0,4.5-2.51c1.34-1.09,2.63-2.27,3.93-3.44l0,.23-1-1.22H220a21.14,21.14,0,0,1-3.1,2.49,9.71,9.71,0,0,1-1.77,1,1.21,1.21,0,0,1-1.08,0,1.13,1.13,0,0,1-.38-1,30.18,30.18,0,0,1,.62-3.92c.26-1.29.54-2.58.83-3.87.59-2.57,1.24-5.12,2-7.65l2.26-7.57.13.13Z"/><path class="cls-2" d="M213.5,23.58l-.15,0h-.6c-.27,0-.54,0-.8,0a8.84,8.84,0,0,0-1.55.12,7.32,7.32,0,0,0-2.76,1,6.65,6.65,0,0,0-2,1.86,15,15,0,0,0-1.47,2.53,23.17,23.17,0,0,0-1.86,5.68,16.8,16.8,0,0,0-.31,2.9,5.79,5.79,0,0,0,.29,2.36.74.74,0,0,0,.27.35c.07,0,.15.08.53,0a5,5,0,0,0,2.12-.9,10.7,10.7,0,0,0,1.11-.86,7.87,7.87,0,0,0,.94-1,13.77,13.77,0,0,0,1.56-2.38,22.43,22.43,0,0,0,1.15-2.77c.34-.93.69-1.86,1.07-2.82C211.83,27.86,212.61,25.84,213.5,23.58Zm.17-.11-1.62,6.28-.82,3.15a21.88,21.88,0,0,1-1,3.09,12,12,0,0,1-3.95,5.11,6.6,6.6,0,0,1-3,1.32,2.75,2.75,0,0,1-1.68-.25,2.7,2.7,0,0,1-1.16-1.25,7.66,7.66,0,0,1-.42-3.27,18.42,18.42,0,0,1,.41-3.22,22.89,22.89,0,0,1,2.32-6.05,10,10,0,0,1,4.47-4.6,8.51,8.51,0,0,1,3.18-.71,9.72,9.72,0,0,1,1.62.09l.81.11.39.08.21,0A1.12,1.12,0,0,1,213.67,23.47Z"/><path class="cls-1" d="M223.46,27l-1.21-1.24a21.73,21.73,0,0,1,5.64-5,10.12,10.12,0,0,1,4.86-1.62,1.86,1.86,0,0,1,1.24.39,1.43,1.43,0,0,1,.45,1.14,8.54,8.54,0,0,1-.21,1.85c-.13.63-.55,2.14-1.26,4.5a52.55,52.55,0,0,1,6.52-5.89,10.12,10.12,0,0,1,5.36-1.9,3.23,3.23,0,0,1,2.68,1.5,7.63,7.63,0,0,1,1.09,4.52,24.82,24.82,0,0,1-4.7,14.34q-4.71,6.8-10.41,6.79A9.32,9.32,0,0,1,229,45.16l-2.67,10.29a6.49,6.49,0,0,0-.25,1.52,1.76,1.76,0,0,0,.88,1.66c.89.52,2.77.94,5.64,1.28l-.41,1.55q-5-.41-7.88-.4c-2,0-4.53.13-7.67.4l.4-1.55a5.73,5.73,0,0,0,3.45-1.31,8.12,8.12,0,0,0,1.73-3.78l5.64-23.66a75.27,75.27,0,0,0,1.59-7.36q0-.81-.78-.81Q227.33,23,223.46,27Zm6.32,14.72a7.18,7.18,0,0,0,5,2.46q3.74,0,6.56-5.83A26.15,26.15,0,0,0,244.2,27a4,4,0,0,0-.8-2.69,2.65,2.65,0,0,0-2.13-.92,5.75,5.75,0,0,0-3.36,1.46,21.15,21.15,0,0,0-4.42,4.52A18.74,18.74,0,0,0,231.44,35Z"/><path class="cls-2" d="M223.46,27.11l-1.35-1.21-.12-.11.11-.14a24.12,24.12,0,0,1,3.77-4.06,15.56,15.56,0,0,1,4.92-2.81,8.4,8.4,0,0,1,1.46-.32,3.28,3.28,0,0,1,1.71.17,2,2,0,0,1,.83.65,2.16,2.16,0,0,1,.41,1,5.07,5.07,0,0,1,0,.83c0,.25,0,.5,0,.75a8.55,8.55,0,0,1-.25,1.42l-.33,1.36-.68,2.69-1.68-1c1.61-1.67,3.22-3.34,5-4.93a14.77,14.77,0,0,1,1.45-1.17,18.58,18.58,0,0,1,1.6-1A10.59,10.59,0,0,1,244,18a7.32,7.32,0,0,1,1.08-.06,4.43,4.43,0,0,1,1.23.22,4.76,4.76,0,0,1,2,1.35,6.32,6.32,0,0,1,1.16,1.92,9.4,9.4,0,0,1,.51,2,17.67,17.67,0,0,1,.1,3.76,25.2,25.2,0,0,1-.52,3.66A27,27,0,0,1,247,37.67a28.75,28.75,0,0,1-4.26,6,14,14,0,0,1-6.61,4.11A10.64,10.64,0,0,1,232,48a11.67,11.67,0,0,1-3.85-1.29l2.56-1.12c-.79,3.24-1.67,6.45-2.52,9.67-.11.41-.23.81-.29,1.11a2.83,2.83,0,0,0-.08.7c0,.13,0,.06,0,0a2.26,2.26,0,0,0,.49.23,23.59,23.59,0,0,0,4.5.89l1.93.25-.5,1.84-.41,1.55-.36,1.33-1.39-.09-7.65-.45c-2.54.1-5.09.23-7.64.34l-2.18.09.55-2,.41-1.55.28-1,1-.1a6.11,6.11,0,0,0,2.23-.57,2,2,0,0,0,.65-.59,5.23,5.23,0,0,0,.56-1,16.72,16.72,0,0,0,.82-2.66l.76-2.89,3-11.56c1-3.86,2.13-7.69,3.16-11.53.25-1,.51-1.92.73-2.88a2.66,2.66,0,0,0,.14-1.14c0-.05-.08-.11-.27-.12a1.29,1.29,0,0,0-.56.12,11.29,11.29,0,0,0-2.4,1.58c-.38.31-.75.64-1.12,1l-.56.5C223.89,26.76,223.66,27,223.46,27.11Zm0-.2c.15-.18.28-.33.45-.5l.53-.53,1.09-1A10.89,10.89,0,0,1,228,23.08c.43-.2,1.13-.37,1.5.17a1.23,1.23,0,0,1,.11.79c0,.26-.08.5-.12.75-.19,1-.41,1.95-.63,2.92l-2.75,11.63L223.31,51l-.69,2.9a19.88,19.88,0,0,1-.82,2.9A4.75,4.75,0,0,1,220,59.2a6.92,6.92,0,0,1-2.9.86l.13-.12-.4,1.56-.17-.2c2.6-.13,5.2-.29,7.79-.4l7.8.39-.19.13.4-1.56.16.22a24.75,24.75,0,0,1-4.94-.94,3.43,3.43,0,0,1-1.15-.63,1.92,1.92,0,0,1-.58-1.22,7.74,7.74,0,0,1,.4-2.52l2.5-9.66.06-.24.22.12a9.68,9.68,0,0,0,3.19,1.1,8.7,8.7,0,0,0,3.37-.17,12.11,12.11,0,0,0,5.73-3.53,26.59,26.59,0,0,0,6.47-12,21.23,21.23,0,0,0,.49-6.83,5.61,5.61,0,0,0-1.22-3.09,3.21,3.21,0,0,0-1.33-.95,3.81,3.81,0,0,0-1.65-.13,9.27,9.27,0,0,0-3.23,1,13.64,13.64,0,0,0-2.84,1.92c-1.75,1.5-3.4,3.12-5,4.75l-.34.34.13-.47.74-2.63a20.79,20.79,0,0,0,.66-2.64,6.64,6.64,0,0,0,.05-1.33,1.19,1.19,0,0,0-.7-1,2.65,2.65,0,0,0-1.29-.15,7.49,7.49,0,0,0-1.32.25A14.8,14.8,0,0,0,226.21,22a25.41,25.41,0,0,0-3.88,3.81V25.7C222.71,26.09,223.08,26.5,223.46,26.91Z"/><path class="cls-2" d="M229.88,41.7a11.52,11.52,0,0,0,2.91,1.51,4.5,4.5,0,0,0,2.93-.07A5.08,5.08,0,0,0,238,41.41a13.18,13.18,0,0,0,1.61-2.65,32.23,32.23,0,0,0,2.16-6.14,26,26,0,0,0,.56-3.15c.05-.53.1-1,.11-1.58,0-.27,0-.53,0-.79a6.52,6.52,0,0,0,0-.66c-.09-.83-.33-1.11-.64-1.25a2.33,2.33,0,0,0-1.84.35,15.89,15.89,0,0,0-2.5,1.81,22.78,22.78,0,0,0-2.29,2.2l-.49.6a4.48,4.48,0,0,0-.38.58,15.24,15.24,0,0,0-.71,1.4,33,33,0,0,0-1.19,3.12C231.54,37.28,230.8,39.39,229.88,41.7Zm-.2.06L231.3,35c.27-1.12.57-2.24.95-3.33a10.08,10.08,0,0,1,1.61-3.08,19.57,19.57,0,0,1,2.35-2.55A19,19,0,0,1,239,23.91a4.08,4.08,0,0,1,3.45-.54,2.78,2.78,0,0,1,1.41,1.14,4.12,4.12,0,0,1,.54,1.71,25.86,25.86,0,0,1-3.41,13.3,13.65,13.65,0,0,1-2,2.83A6.14,6.14,0,0,1,236,44.17a5.43,5.43,0,0,1-3.44-.35A9,9,0,0,1,229.68,41.76Z"/><path class="cls-1" d="M251,25.64l-1-1.46,2.31-1.56a41.64,41.64,0,0,1,4.74-3,3.36,3.36,0,0,1,1.43-.38,1.64,1.64,0,0,1,1.25.75,29.19,29.19,0,0,1,4.61,9.33,37.37,37.37,0,0,1,1.87,11.39c0,.47,0,1.2-.06,2.18q5.28-9.7,5.27-15.41a12.48,12.48,0,0,0-.53-3.15,14.87,14.87,0,0,1-.56-3.12,2.06,2.06,0,0,1,.58-1.5,1.94,1.94,0,0,1,1.45-.59,2.16,2.16,0,0,1,1.76.84,3.75,3.75,0,0,1,.67,2.4,35.71,35.71,0,0,1-1.84,10,65.13,65.13,0,0,1-5.78,12.91A52.3,52.3,0,0,1,260,55.59a22.93,22.93,0,0,1-6.29,4.8,13.52,13.52,0,0,1-5.75,1.45,5.24,5.24,0,0,1-3.11-.77,2.22,2.22,0,0,1-1-1.82,2,2,0,0,1,.81-1.61,3.36,3.36,0,0,1,2.18-.67,14.44,14.44,0,0,1,2.9.41,15.31,15.31,0,0,0,2.68.44,6.79,6.79,0,0,0,4-1.59A16.72,16.72,0,0,0,261,51a12.39,12.39,0,0,0,1.7-6.11,52.48,52.48,0,0,0-1.26-10.4,24.47,24.47,0,0,0-3.57-9.28,3.15,3.15,0,0,0-2.46-1.65Q253.83,23.59,251,25.64Z"/><path class="cls-2" d="M251,25.74l-1.13-1.46-.1-.14.15-.11,3.58-2.66c.61-.43,1.22-.86,1.85-1.27a11.27,11.27,0,0,1,2-1.14,3.12,3.12,0,0,1,1.34-.23,2.2,2.2,0,0,1,1.31.7,18.09,18.09,0,0,1,1.44,1.84,26.92,26.92,0,0,1,2.25,4,40.12,40.12,0,0,1,2.9,8.62,36.71,36.71,0,0,1,.8,9.11l-2.34-.65a59.28,59.28,0,0,0,3.49-8,28.1,28.1,0,0,0,1.06-4.1,17.91,17.91,0,0,0,.24-2,7.3,7.3,0,0,0-.11-1.87c-.23-1.28-.78-2.74-1-4.48a4.32,4.32,0,0,1,.11-1.71,3.6,3.6,0,0,1,1.05-1.69,3.48,3.48,0,0,1,1.82-.87,4.11,4.11,0,0,1,1.87.14,4,4,0,0,1,2.5,2.61,7.59,7.59,0,0,1,.31,2.79,30.18,30.18,0,0,1-.56,4.7A59.52,59.52,0,0,1,269.4,45a81.61,81.61,0,0,1-4.88,7.74,38.8,38.8,0,0,1-3,3.63,32.16,32.16,0,0,1-3.5,3.19,19.38,19.38,0,0,1-4.16,2.52,15.57,15.57,0,0,1-4.8,1.31,11.36,11.36,0,0,1-2.6,0,5.66,5.66,0,0,1-2.84-1.15,4.22,4.22,0,0,1-1.12-1.4A3.53,3.53,0,0,1,243,57a4.18,4.18,0,0,1,1.39-1.09,5.66,5.66,0,0,1,3-.46,17.25,17.25,0,0,1,2.41.42c.73.17,1.43.34,2.08.44a2.68,2.68,0,0,0,.78.05,3.28,3.28,0,0,0,.81-.14,9.23,9.23,0,0,0,3.29-2,15.22,15.22,0,0,0,2.74-3.09,13.11,13.11,0,0,0,1.74-3.69,12.94,12.94,0,0,0,.36-4.12,65.09,65.09,0,0,0-1-8.74A26.14,26.14,0,0,0,258,26.29a7.75,7.75,0,0,0-1.22-1.71,2.08,2.08,0,0,0-1.74-.66,6.57,6.57,0,0,0-2,.68c-.33.17-.65.35-1,.53S251.38,25.54,251,25.74Zm0-.2a5.87,5.87,0,0,1,.85-.62c.31-.2.63-.4,1-.58a6.71,6.71,0,0,1,2.1-.82,2.48,2.48,0,0,1,2.14.68A8,8,0,0,1,258.45,26a27,27,0,0,1,3,8.41,57.46,57.46,0,0,1,1.26,8.86,13.1,13.1,0,0,1-2.12,8.6,16.75,16.75,0,0,1-2.91,3.43,10.87,10.87,0,0,1-3.79,2.42,4.86,4.86,0,0,1-2.27.2c-.75-.1-1.48-.26-2.21-.42a18.43,18.43,0,0,0-2.19-.34,4.14,4.14,0,0,0-2.1.31A2.11,2.11,0,0,0,243.93,59a2,2,0,0,0,.83,1.79,6,6,0,0,0,4.17.79,15.84,15.84,0,0,0,8-3.52,30.48,30.48,0,0,0,6-6.48A79.64,79.64,0,0,0,267.65,44,58,58,0,0,0,274,27.46a28.32,28.32,0,0,0,.56-4.4,5.93,5.93,0,0,0-.2-2.15A2.19,2.19,0,0,0,273,19.44a2,2,0,0,0-1.93.34,2.06,2.06,0,0,0-.6,1.9c.15,1.47.66,2.88.92,4.36a12.37,12.37,0,0,1-.18,4.5A28.81,28.81,0,0,1,270,34.86,61.87,61.87,0,0,1,266.27,43l-.31.56,0-.64a38.35,38.35,0,0,0-3.18-17.29,27.67,27.67,0,0,0-2.05-3.93,17.64,17.64,0,0,0-1.3-1.78,1.52,1.52,0,0,0-.87-.52,2.72,2.72,0,0,0-1,.16,24.47,24.47,0,0,0-3.82,2.22l-3.69,2.48,0-.14C250.4,24.59,250.7,25.06,251,25.54Z"/></g></g></svg>